<svg width="73" height="23" viewBox="0 0 73 23" fill="none" xmlns="http://www.w3.org/2000/svg">
<g clip-path="url(#clip0_102_37)">
<path d="M21.5057 16.3486C21.3931 16.0767 21.2875 15.7908 21.1748 15.5468L20.6538 14.3825L20.6327 14.3615C19.0838 11.0149 17.4292 7.61242 15.6761 4.26576L15.6057 4.12631C15.4297 3.79862 15.2537 3.43606 15.0706 3.10139C14.8453 2.70398 14.6271 2.27867 14.268 1.87428C13.918 1.45116 13.4775 1.11026 12.9783 0.876178C12.4791 0.642097 11.9337 0.520676 11.3814 0.520676C10.829 0.520676 10.2836 0.642097 9.78441 0.876178C9.28522 1.11026 8.84473 1.45116 8.49472 1.87428C8.16382 2.27867 7.9174 2.70398 7.6921 3.10139C7.51608 3.46395 7.34007 3.81953 7.15701 4.14723L7.08661 4.28667C5.36167 7.63334 3.67897 11.0358 2.13004 14.3825L2.0878 14.4243C1.9329 14.7868 1.74985 15.1633 1.57384 15.5677C1.46119 15.8118 1.34854 16.0767 1.23589 16.3695C0.931758 17.1363 0.834639 17.9684 0.954104 18.7837C1.07357 19.5989 1.40549 20.3693 1.91717 21.0189C2.42884 21.6685 3.1026 22.1748 3.87204 22.488C4.64148 22.8012 5.48005 22.9104 6.3051 22.8049C7.09609 22.7018 7.85774 22.4409 8.54401 22.038C9.45928 21.529 10.3394 20.7899 11.325 19.7232C12.3107 20.7899 13.2119 21.529 14.1061 22.0449C14.9659 22.5447 15.9397 22.8206 16.9364 22.8467C18.0906 22.8515 19.2075 22.4425 20.081 21.6954C20.9545 20.9483 21.5256 19.9134 21.6888 18.7819C21.8773 17.9688 21.8135 17.1182 21.5057 16.3416V16.3486ZM11.3954 17.506C10.1845 15.9721 9.39592 14.5637 9.12837 13.3575C9.01753 12.9106 8.99364 12.4468 9.05797 11.991C9.10725 11.6354 9.24102 11.3216 9.42408 11.0567C9.84651 10.4501 10.5858 10.0736 11.3954 10.0736C11.78 10.062 12.1614 10.1451 12.5054 10.3154C12.8495 10.4858 13.1455 10.7381 13.3668 11.0497C13.5499 11.3286 13.6836 11.6354 13.7259 11.991C13.7963 12.3954 13.7681 12.8625 13.6555 13.3575C13.3879 14.5428 12.5994 15.9651 11.3954 17.506ZM20.3651 18.5379C20.2851 19.1124 20.0545 19.6561 19.6963 20.1148C19.3381 20.5735 18.8647 20.9313 18.3234 21.1525C17.7883 21.3756 17.1969 21.4383 16.6195 21.3756C16.0563 21.3059 15.4931 21.1246 14.9157 20.7899C13.9572 20.2032 13.0952 19.4743 12.36 18.6285C13.8385 16.8158 14.7327 15.1633 15.0706 13.6922C15.2326 12.995 15.2537 12.3675 15.1833 11.7888C15.0954 11.2403 14.8888 10.717 14.5778 10.2549C14.2227 9.75377 13.7486 9.34672 13.1974 9.06953C12.6462 8.79235 12.0347 8.65351 11.4166 8.66523C10.1141 8.66523 8.95236 9.26484 8.2483 10.2479C7.93136 10.7089 7.72653 11.2363 7.64985 11.7888C7.55833 12.3744 7.57945 13.0229 7.7625 13.6922C8.10045 15.1633 9.01573 16.8367 10.4731 18.6425C9.75039 19.5044 8.88644 20.2397 7.9174 20.8178C7.33303 21.1525 6.77682 21.3268 6.21358 21.3965C5.33765 21.5076 4.45283 21.2719 3.75146 20.7405C3.05008 20.2091 2.58884 19.4251 2.46799 18.5588C2.39758 18.001 2.44687 17.4433 2.67217 16.8158C2.74257 16.5926 2.84818 16.3695 2.96083 16.1046C3.11572 15.742 3.29878 15.3655 3.47479 14.989L3.50295 14.9402C5.02372 11.6145 6.68529 8.21901 8.41024 4.89326L8.48064 4.75381C8.65666 4.41914 8.83267 4.06356 9.01573 3.72889C9.19878 3.37331 9.39592 3.03167 9.64938 2.75278C9.86877 2.49343 10.1429 2.28486 10.4525 2.14175C10.7621 1.99864 11.0996 1.92448 11.4412 1.92448C11.7829 1.92448 12.1203 1.99864 12.4299 2.14175C12.7395 2.28486 13.0136 2.49343 13.233 2.75278C13.4795 3.03167 13.6836 3.37331 13.8667 3.72889C14.0427 4.06356 14.2187 4.42612 14.4018 4.75381L14.4722 4.89326C16.1901 8.21901 17.8517 11.6145 19.4006 14.9402L19.4217 14.9611C19.6048 15.3237 19.7596 15.7281 19.9357 16.0767C20.0483 16.3486 20.161 16.5648 20.2314 16.7948C20.3651 17.4223 20.4355 17.9801 20.3651 18.5379V18.5379ZM30.1656 17.3526C29.6351 17.3603 29.1096 17.2496 28.6282 17.0287C28.1467 16.8078 27.7217 16.4825 27.3846 16.0767C26.6271 15.2121 26.225 14.0973 26.2581 12.9531C26.2465 11.784 26.6615 10.6501 27.4268 9.75987C27.7808 9.34894 28.2215 9.01986 28.7178 8.7958C29.2141 8.57174 29.754 8.45815 30.2994 8.46303C30.8126 8.44912 31.321 8.56469 31.7767 8.79886C32.2324 9.03304 32.6204 9.37813 32.9044 9.8017L32.9748 8.70706H35.0307V17.1295H32.9678L32.8974 15.9024C32.6046 16.3547 32.1999 16.7253 31.7218 16.9791C31.2437 17.2329 30.708 17.3615 30.1656 17.3526V17.3526ZM30.7007 15.3446C31.1091 15.3446 31.4681 15.2331 31.8061 15.0309C32.1159 14.8078 32.3693 14.5149 32.5665 14.1593C32.7425 13.8038 32.834 13.3784 32.834 12.9043C32.8614 12.4926 32.7805 12.0808 32.5991 11.7092C32.4177 11.3377 32.142 11.0192 31.799 10.7848C31.4695 10.5814 31.089 10.4737 30.7007 10.4737C30.3124 10.4737 29.9319 10.5814 29.6024 10.7848C29.2926 11.0079 29.0391 11.3007 28.842 11.6563C28.6558 12.0485 28.5642 12.4781 28.5744 12.9113C28.547 13.3231 28.6279 13.7349 28.8094 14.1064C28.9908 14.4779 29.2664 14.7965 29.6094 15.0309C29.9403 15.2331 30.2994 15.3446 30.7007 15.3446ZM38.5509 6.43412C38.5509 6.67814 38.5087 6.90126 38.3961 7.08253C38.2834 7.25684 38.1285 7.4172 37.9243 7.52876C37.7202 7.64031 37.5019 7.68214 37.2766 7.68214C37.0513 7.68214 36.826 7.64031 36.6218 7.52876C36.4287 7.4223 36.2663 7.26869 36.1501 7.08253C36.0411 6.88392 35.9876 6.66006 35.9952 6.43412C35.9952 6.18312 36.0445 5.96001 36.1501 5.7857C36.2628 5.57653 36.4247 5.45103 36.6218 5.33948C36.826 5.22792 37.0443 5.17912 37.2766 5.17912C37.5007 5.174 37.7223 5.22656 37.9198 5.33167C38.1172 5.43677 38.2838 5.59081 38.4031 5.77873C38.5056 5.982 38.5563 6.20699 38.5509 6.43412V6.43412ZM36.1572 17.1016V8.69312H38.3961V17.1156H36.1501L36.1572 17.1016ZM44.3805 10.8963V10.9242C44.2749 10.8754 44.1341 10.8545 44.0285 10.8336C43.8877 10.8057 43.7751 10.8057 43.6413 10.8057C43.0147 10.8057 42.543 10.987 42.2332 11.3635C41.8952 11.7469 41.7403 12.2838 41.7403 12.9741V17.1086H39.4944V8.68614H41.5573L41.6277 9.96206C41.853 9.51584 42.1205 9.18117 42.5007 8.93017C42.8789 8.68629 43.3241 8.5645 43.7751 8.58156C43.937 8.58156 44.0919 8.59551 44.2257 8.62339C44.2961 8.64431 44.3383 8.64431 44.3805 8.66523V10.8963V10.8963ZM45.2817 17.1016V5.23489H47.5206V9.76684C47.8375 9.36245 48.1965 9.0487 48.6471 8.80467C49.3605 8.45831 50.1709 8.36007 50.9475 8.52578C51.7242 8.69149 52.4218 9.1115 52.9278 9.71803C53.687 10.5844 54.0892 11.702 54.0543 12.8486C54.0659 14.0177 53.6509 15.1516 52.8856 16.0418C52.5316 16.4528 52.0909 16.7818 51.5946 17.0059C51.0983 17.23 50.5584 17.3436 50.013 17.3387C49.4998 17.3526 48.9914 17.237 48.5357 17.0028C48.08 16.7687 47.692 16.4236 47.408 16L47.3376 17.0946L45.2817 17.1156V17.1016ZM49.6117 15.3446C50.013 15.3446 50.3721 15.2331 50.71 15.0309C51.0198 14.8078 51.2733 14.5149 51.4704 14.1593C51.6535 13.8038 51.738 13.3784 51.738 12.9043C51.738 12.4372 51.6535 12.0119 51.4704 11.6563C51.2855 11.3134 51.0258 11.0157 50.71 10.7848C50.3805 10.5814 50 10.4737 49.6117 10.4737C49.2234 10.4737 48.8429 10.5814 48.5134 10.7848C48.1965 11.0079 47.9501 11.3007 47.7459 11.6563C47.5598 12.0485 47.4682 12.4781 47.4784 12.9113C47.451 13.3231 47.5319 13.7349 47.7133 14.1064C47.8947 14.4779 48.1704 14.7965 48.5134 15.0309C48.8443 15.2331 49.2033 15.3446 49.6117 15.3446ZM54.8992 17.1086V8.68614H56.9621L57.0325 9.78078C57.2917 9.36118 57.6594 9.01779 58.0976 8.78612C58.5358 8.55444 59.0285 8.4429 59.5248 8.46303C60.0924 8.45333 60.6502 8.60953 61.1286 8.91212C61.6069 9.2147 61.9846 9.65024 62.2143 10.1643C62.4608 10.6941 62.5945 11.3495 62.5945 12.0816V17.1295H60.3486V12.3744C60.3486 11.7888 60.2148 11.3286 59.9473 10.987C59.6797 10.6523 59.3136 10.471 58.8489 10.471C58.511 10.471 58.2153 10.5408 57.9548 10.6941C57.7084 10.8545 57.5042 11.0567 57.3493 11.3426C57.1927 11.6315 57.115 11.956 57.124 12.2838V17.1086H54.8992V17.1086ZM63.714 17.1086V5.22792H65.9599V9.75987C66.2641 9.35322 66.6599 9.0224 67.1157 8.79366C67.5716 8.56491 68.075 8.44455 68.5861 8.44212C69.1166 8.43443 69.6421 8.54513 70.1235 8.76601C70.6049 8.98689 71.03 9.31228 71.3671 9.71803C72.1209 10.5843 72.5202 11.6985 72.4865 12.8416C72.4988 14.0108 72.0837 15.1449 71.3178 16.0349C70.9638 16.4458 70.5231 16.7749 70.0268 16.9989C69.5305 17.223 68.9907 17.3366 68.4452 17.3317C67.932 17.3456 67.4237 17.23 66.968 16.9959C66.5123 16.7617 66.1242 16.4166 65.8402 15.993L65.7769 17.0877L63.714 17.1086V17.1086ZM68.0651 15.3446C68.4734 15.3446 68.8325 15.2331 69.1634 15.0309C69.4802 14.8078 69.7266 14.5149 69.9308 14.1593C70.1068 13.8038 70.1983 13.3784 70.1983 12.9043C70.2258 12.4926 70.1449 12.0808 69.9634 11.7092C69.782 11.3377 69.5064 11.0192 69.1634 10.7848C68.8338 10.5814 68.4533 10.4737 68.0651 10.4737C67.6768 10.4737 67.2963 10.5814 66.9667 10.7848C66.6569 11.0079 66.4035 11.3007 66.2063 11.6563C66.0098 12.045 65.9177 12.4772 65.9388 12.9113C65.9113 13.3231 65.9923 13.7349 66.1737 14.1064C66.3551 14.4779 66.6308 14.7965 66.9738 15.0309C67.3047 15.2331 67.6426 15.3446 68.0651 15.3446Z" fill="#FF385C"/>
</g>
<defs>
<clipPath id="clip0_102_37">
<rect width="71.8139" height="22.3111" fill="white" transform="translate(0.919434 0.536163)"/>
</clipPath>
</defs>
</svg>
