<svg width="73" height="23" viewBox="0 0 73 23" fill="none" xmlns="http://www.w3.org/2000/svg">
<g clip-path="url(#clip0_102_62)">
<path fill-rule="evenodd" clip-rule="evenodd" d="M45.5165 17.9841C41.3432 21.1553 35.2944 22.8472 30.0865 22.8472C22.7841 22.8472 16.2101 20.0628 11.2366 15.4317C10.8459 15.0675 11.196 14.5712 11.6649 14.8548C17.0322 18.0743 23.6688 20.0112 30.5241 20.0112C35.1475 20.0112 40.2335 19.025 44.91 16.9786C45.6165 16.6692 46.2073 17.4556 45.5165 17.9841" fill="#FF9900"/>
<path fill-rule="evenodd" clip-rule="evenodd" d="M47.2504 15.9377C46.7189 15.2351 43.7242 15.6057 42.3801 15.7701C41.9706 15.8216 41.908 15.4542 42.2769 15.19C44.662 13.4594 48.5758 13.9589 49.0322 14.539C49.4886 15.1223 48.9134 19.1669 46.6721 21.0973C46.3282 21.3938 46 21.2359 46.1531 20.8427C46.6564 19.5471 47.7849 16.6434 47.2504 15.9377" fill="#FF9900"/>
<path fill-rule="evenodd" clip-rule="evenodd" d="M42.4749 2.97255V1.29027C42.4749 1.03567 42.6625 0.864868 42.8875 0.864868H50.193C50.4275 0.864868 50.615 1.0389 50.615 1.29027V2.73084C50.6119 2.97255 50.415 3.28838 50.0649 3.7879L46.2793 9.36004C47.686 9.32459 49.1708 9.54051 50.4462 10.2817C50.7338 10.4493 50.812 10.6943 50.8339 10.936V12.731C50.8339 12.976 50.5713 13.2628 50.2962 13.1145C48.0486 11.8996 45.0632 11.7674 42.5781 13.1274C42.3249 13.2692 42.0591 12.9856 42.0591 12.7407V11.0359C42.0591 10.7619 42.0623 10.2946 42.328 9.8789L46.7138 3.39473H42.8969C42.6625 3.39473 42.4749 3.22392 42.4749 2.97255" fill="black"/>
<path fill-rule="evenodd" clip-rule="evenodd" d="M15.8244 13.4691H13.6018C13.3892 13.453 13.2204 13.2887 13.2048 13.0792V1.31937C13.2048 1.08411 13.3955 0.897185 13.633 0.897185H15.7056C15.9213 0.906847 16.0932 1.07766 16.1088 1.29036V2.82761H16.1495C16.6903 1.34192 17.7062 0.649033 19.0754 0.649033C20.4665 0.649033 21.3355 1.34192 21.9607 2.82761C22.4984 1.34192 23.7207 0.649033 25.0305 0.649033C25.962 0.649033 26.9811 1.04543 27.6032 1.93491C28.3065 2.92429 28.1627 4.36164 28.1627 5.62173L28.1596 13.0437C28.1596 13.279 27.9689 13.4691 27.7314 13.4691H25.5119C25.2899 13.453 25.1118 13.2693 25.1118 13.0437V6.81093C25.1118 6.31462 25.1555 5.07709 25.0492 4.60657C24.8836 3.817 24.3865 3.59462 23.7426 3.59462C23.2049 3.59462 22.6422 3.96524 22.414 4.55823C22.1858 5.15121 22.2077 6.14382 22.2077 6.81093V13.0437C22.2077 13.279 22.017 13.4691 21.7794 13.4691H19.56C19.3349 13.453 19.1598 13.2693 19.1598 13.0437L19.1567 6.81093C19.1567 5.49927 19.3661 3.56884 17.7875 3.56884C16.1901 3.56884 16.2526 5.45093 16.2526 6.81093V13.0437C16.2526 13.279 16.0619 13.4691 15.8244 13.4691" fill="black"/>
<path fill-rule="evenodd" clip-rule="evenodd" d="M56.9036 0.649033C60.2016 0.649033 61.9865 3.56884 61.9865 7.28145C61.9865 10.8684 60.014 13.7141 56.9036 13.7141C53.6651 13.7141 51.902 10.7942 51.902 7.15576C51.902 3.49472 53.6869 0.649033 56.9036 0.649033V0.649033ZM56.9224 3.04998C55.2843 3.04998 55.1812 5.35102 55.1812 6.78515C55.1812 8.22249 55.1593 11.2906 56.9036 11.2906C58.626 11.2906 58.7073 8.81548 58.7073 7.30723C58.7073 6.31463 58.6667 5.12866 58.376 4.18761C58.1259 3.36904 57.6288 3.04998 56.9224 3.04998" fill="black"/>
<path fill-rule="evenodd" clip-rule="evenodd" d="M66.2637 13.4691H64.0504C63.8285 13.453 63.6503 13.2693 63.6503 13.0437L63.6472 1.28069C63.6659 1.06477 63.8504 0.897185 64.0754 0.897185H66.1355C66.3293 0.906847 66.4887 1.04221 66.5325 1.22591V3.0242H66.5731C67.1952 1.41605 68.0674 0.649033 69.6022 0.649033C70.5994 0.649033 71.5716 1.01965 72.1968 2.03481C72.7783 2.97586 72.7783 4.55823 72.7783 5.69586V13.0985C72.7533 13.3048 72.5688 13.4691 72.35 13.4691H70.1212C69.918 13.453 69.7492 13.2983 69.7273 13.0985V6.71102C69.7273 5.42515 69.8711 3.54306 68.3362 3.54306C67.7954 3.54306 67.2984 3.9169 67.0514 4.4841C66.7388 5.20278 66.6982 5.91823 66.6982 6.71102V13.0437C66.695 13.279 66.5012 13.4691 66.2637 13.4691" fill="black"/>
<path fill-rule="evenodd" clip-rule="evenodd" d="M36.6505 7.85184C36.6505 8.74454 36.6724 9.48899 36.2347 10.2818C35.8815 10.9263 35.3188 11.3227 34.6967 11.3227C33.8433 11.3227 33.3432 10.6524 33.3432 9.66302C33.3432 7.71004 35.0406 7.35553 36.6505 7.35553V7.85184V7.85184ZM38.8919 13.4369C38.7449 13.5722 38.5324 13.5819 38.3667 13.4916C37.6289 12.86 37.4945 12.5667 37.0913 11.9641C35.8721 13.2467 35.0062 13.6302 33.4276 13.6302C31.5551 13.6302 30.1015 12.441 30.1015 10.0594C30.1015 8.19989 31.0768 6.93335 32.471 6.31459C33.6777 5.76672 35.3626 5.67004 36.6505 5.51857V5.22207C36.6505 4.67743 36.6911 4.03288 36.3785 3.56236C36.1097 3.14018 35.5908 2.96615 35.1313 2.96615C34.2841 2.96615 33.5307 3.41411 33.3463 4.34226C33.3088 4.54852 33.1619 4.75155 32.9587 4.76122L30.8049 4.52273C30.6235 4.48084 30.4204 4.32937 30.4735 4.04255C30.9674 1.34833 33.3307 0.536194 35.4439 0.536194C36.5255 0.536194 37.9384 0.832687 38.7918 1.67705C39.8734 2.718 39.7703 4.107 39.7703 5.61847V9.18928C39.7703 10.2625 40.2017 10.733 40.608 11.3131C40.7487 11.5193 40.78 11.7675 40.5987 11.9222C40.1454 12.3121 39.3389 13.0372 38.895 13.4433L38.8918 13.4369" fill="black"/>
<path fill-rule="evenodd" clip-rule="evenodd" d="M7.51289 7.85202C7.51289 8.74472 7.53477 9.48917 7.09713 10.282C6.74389 10.9265 6.18434 11.3229 5.55914 11.3229C4.70573 11.3229 4.2087 10.6526 4.2087 9.6632C4.2087 7.71022 5.90612 7.35572 7.51289 7.35572V7.85202V7.85202ZM9.75424 13.437C9.60732 13.5724 9.39475 13.5821 9.22907 13.4918C8.49134 12.8602 8.36004 12.5669 7.95366 11.9642C6.73452 13.2469 5.87174 13.6304 4.28997 13.6304C2.42062 13.6304 0.963898 12.4412 0.963898 10.0596C0.963898 8.20008 1.94234 6.93353 3.33341 6.31477C4.54005 5.7669 6.22498 5.67022 7.51289 5.51875V5.22226C7.51289 4.67761 7.55353 4.03306 7.24406 3.56254C6.97209 3.14036 6.45318 2.96633 5.99678 2.96633C5.14963 2.96633 4.39313 3.41429 4.2087 4.34244C4.17119 4.5487 4.02426 4.75173 3.8242 4.7614L1.66725 4.52292C1.48594 4.48102 1.28588 4.32955 1.33589 4.04273C1.83293 1.34851 4.19307 0.536377 6.30625 0.536377C7.38785 0.536377 8.80081 0.83287 9.65421 1.67723C10.7358 2.71818 10.6327 4.10718 10.6327 5.61865V9.18946C10.6327 10.2626 11.064 10.7332 11.4704 11.3133C11.6142 11.5195 11.6455 11.7677 11.4642 11.9223C11.0109 12.3123 10.2044 13.0374 9.76049 13.4435L9.75425 13.437" fill="black"/>
</g>
<defs>
<clipPath id="clip0_102_62">
<rect width="71.8139" height="22.3111" fill="white" transform="translate(0.963898 0.536163)"/>
</clipPath>
</defs>
</svg>
