<svg width="86" height="27" viewBox="0 0 86 27" fill="none" xmlns="http://www.w3.org/2000/svg">
<g clip-path="url(#clip0_102_4)">
<path fill-rule="evenodd" clip-rule="evenodd" d="M54.0337 8.86057L52.6392 6.50396L50.1641 7.68227L48.7696 5.31868L46.2945 6.50396L44.907 4.1334L42.4319 5.31868L41.0374 2.9551L38.5623 4.14038L37.1748 1.76982L34.6927 2.9551L29.4426 20.051L35.8222 22.0032C36.0625 21.2327 36.5705 20.5735 37.2545 20.1448C37.9384 19.7161 38.7531 19.5462 39.5513 19.6658C40.3496 19.7853 41.0787 20.1865 41.607 20.7968C42.1353 21.407 42.4279 22.1861 42.4319 22.9933V23.063C42.4458 23.3698 42.411 23.6765 42.3203 23.9833L48.8045 25.9704L54.0337 8.86057V8.86057Z" fill="#D61920"/>
<path fill-rule="evenodd" clip-rule="evenodd" d="M34.9168 18.6427C34.7555 18.616 34.6091 18.5324 34.5042 18.407C34.3993 18.2817 34.3428 18.1228 34.345 17.9594V9.59272C34.3441 9.5009 34.3615 9.40981 34.3962 9.3248C34.4309 9.23979 34.4822 9.16256 34.5472 9.09763C34.6121 9.0327 34.6893 8.98138 34.7743 8.94667C34.8594 8.91196 34.9504 8.89456 35.0423 8.89549H41.0872C41.4433 8.89458 41.7962 8.96382 42.1256 9.09928C42.455 9.23473 42.7545 9.43374 43.007 9.68494C43.2595 9.93615 43.4601 10.2346 43.5972 10.5633C43.7344 10.892 43.8054 11.2445 43.8063 11.6007V17.9594C43.8062 18.0621 43.7833 18.1634 43.7394 18.2563C43.6955 18.3491 43.6316 18.4311 43.5523 18.4963C43.4731 18.5616 43.3804 18.6086 43.2809 18.6339C43.1813 18.6592 43.0775 18.6622 42.9766 18.6427C42.8166 18.6145 42.6719 18.5303 42.5684 18.405C42.4649 18.2798 42.4094 18.1218 42.4119 17.9594V11.6077C42.4119 11.2564 42.2723 10.9194 42.0239 10.671C41.7755 10.4225 41.4385 10.283 41.0872 10.283H39.7694V17.9524C39.77 18.0458 39.7517 18.1384 39.7158 18.2246C39.6799 18.3109 39.627 18.389 39.5603 18.4544C39.4809 18.5331 39.3836 18.5914 39.2767 18.6242C39.1698 18.657 39.0566 18.6633 38.9467 18.6427C38.7854 18.616 38.6391 18.5324 38.5342 18.407C38.4293 18.2817 38.3728 18.1228 38.375 17.9594V10.283H35.7395V17.9524C35.7401 18.055 35.7181 18.1564 35.6751 18.2495C35.632 18.3426 35.569 18.425 35.4904 18.491C35.4118 18.5569 35.3197 18.6047 35.2205 18.6309C35.1214 18.6571 35.0176 18.6611 34.9168 18.6427V18.6427ZM44.9707 22.2891C44.8082 22.2623 44.6609 22.1777 44.5559 22.0508C44.4508 21.924 44.3951 21.7635 44.399 21.5989C44.3997 21.416 44.4724 21.2407 44.6012 21.1108C44.7299 20.9795 44.9053 20.9043 45.0892 20.9017C45.6819 20.9017 46.1908 20.5252 46.3582 19.9604L47.0763 17.5689L44.7267 9.71124C44.6986 9.62336 44.6883 9.53079 44.6963 9.4389C44.7044 9.34701 44.7305 9.25762 44.7733 9.17591C44.8161 9.0942 44.8747 9.02179 44.9457 8.96289C45.0167 8.90398 45.0986 8.85975 45.1868 8.83274C45.3625 8.78406 45.5501 8.80466 45.711 8.89029C45.8718 8.97592 45.9937 9.12004 46.0514 9.29291L47.7944 15.1496L49.5654 9.29291C49.6491 8.97219 50.0046 8.75605 50.3672 8.82577L50.416 8.83274C50.7925 8.95127 51.0017 9.34869 50.8901 9.71822L48.4708 17.7781L47.7038 20.3578C47.5317 20.913 47.1904 21.4005 46.7277 21.7523C46.257 22.1053 45.6845 22.2961 45.0962 22.2961C45.0542 22.2977 45.0122 22.2954 44.9707 22.2891" fill="#FEFEFE"/>
<path fill-rule="evenodd" clip-rule="evenodd" d="M2.35587 17.1157H3.72243C4.08671 17.1157 4.43607 16.971 4.69366 16.7134C4.95124 16.4558 5.09595 16.1064 5.09595 15.7422V11.7192C5.09687 11.5388 5.06225 11.36 4.99407 11.193C4.92589 11.026 4.82549 10.8741 4.69859 10.7459C4.5717 10.6177 4.42079 10.5158 4.2545 10.4459C4.0882 10.376 3.90977 10.3396 3.7294 10.3387H2.35587V17.1017V17.1157ZM1.49829 18.552C1.33088 18.5237 1.1791 18.4364 1.07041 18.306C0.961719 18.1756 0.903276 18.0106 0.905648 17.8408V5.34657C0.904416 5.25098 0.922282 5.1561 0.9582 5.0675C0.994117 4.97891 1.04736 4.89837 1.11481 4.83063C1.19642 4.74589 1.2976 4.6825 1.40944 4.64602C1.52129 4.60955 1.64039 4.60112 1.75626 4.62146C2.10487 4.69118 2.35587 4.98401 2.35587 5.3396V8.89543H3.72243C4.09292 8.89451 4.45995 8.9667 4.8025 9.10784C5.14505 9.24899 5.4564 9.45632 5.7187 9.71798C5.981 9.97963 6.1891 10.2905 6.3311 10.6327C6.47309 10.9749 6.54618 11.3417 6.54618 11.7122V15.7352C6.54433 16.4817 6.24698 17.1971 5.71913 17.7249C5.19128 18.2528 4.47589 18.5501 3.7294 18.552H1.63076C1.58416 18.5547 1.5374 18.5524 1.49131 18.545L1.49829 18.552Z" fill="#333545"/>
<path fill-rule="evenodd" clip-rule="evenodd" d="M11.4616 10.2829C11.3833 10.2692 11.304 10.2622 11.2245 10.262C11.0436 10.2601 10.8642 10.2944 10.6967 10.3627C10.5292 10.4311 10.3771 10.5322 10.2491 10.6601C10.1212 10.788 10.0201 10.9402 9.95175 11.1077C9.88338 11.2752 9.84913 11.4546 9.85099 11.6355V15.8258C9.85007 16.0064 9.88497 16.1855 9.95367 16.3525C10.0224 16.5196 10.1235 16.6714 10.2512 16.7991C10.379 16.9268 10.5307 17.028 10.6978 17.0967C10.8649 17.1654 11.0439 17.2003 11.2245 17.1993C11.5888 17.1993 11.9382 17.0546 12.1958 16.797C12.4533 16.5395 12.5981 16.1901 12.5981 15.8258V11.6425C12.5981 10.9662 12.117 10.4014 11.4616 10.2829V10.2829ZM10.7295 18.6147C10.0758 18.4997 9.48368 18.1575 9.05763 17.6486C8.63158 17.1396 8.39895 16.4965 8.40077 15.8328V11.6425C8.39954 11.2716 8.47229 10.9043 8.61475 10.5619C8.75722 10.2195 8.96654 9.90894 9.23047 9.64842C9.49226 9.38669 9.80319 9.17927 10.1454 9.03808C10.4876 8.89689 10.8543 8.82471 11.2245 8.8257C11.9716 8.8257 12.688 9.12246 13.2163 9.65071C13.7445 10.179 14.0413 10.8954 14.0413 11.6425V15.8328C14.0413 16.5858 13.7485 17.2969 13.2116 17.8338C12.9509 18.095 12.6411 18.3022 12.3001 18.4433C11.9591 18.5845 11.5936 18.657 11.2245 18.6565C11.0586 18.6572 10.8929 18.6432 10.7295 18.6147V18.6147ZM18.9567 10.2899C18.8784 10.2761 18.7991 10.2692 18.7197 10.2689C18.5388 10.2671 18.3593 10.3013 18.1918 10.3697C18.0244 10.4381 17.8722 10.5392 17.7443 10.6671C17.6164 10.795 17.5153 10.9472 17.4469 11.1146C17.3785 11.2821 17.3443 11.4616 17.3461 11.6425V15.8328C17.3452 16.0134 17.3801 16.1924 17.4488 16.3595C17.5175 16.5266 17.6186 16.6783 17.7464 16.8061C17.8741 16.9338 18.0259 17.0349 18.1929 17.1036C18.36 17.1723 18.539 17.2072 18.7197 17.2063C18.9003 17.2072 19.0793 17.1723 19.2464 17.1036C19.4134 17.0349 19.5652 16.9338 19.693 16.8061C19.8207 16.6783 19.9218 16.5266 19.9905 16.3595C20.0592 16.1924 20.0941 16.0134 20.0932 15.8328V11.6425C20.0932 10.9731 19.6121 10.4084 18.9567 10.2899V10.2899ZM18.2246 18.6147C17.5722 18.4982 16.9817 18.1554 16.5571 17.6466C16.1324 17.1378 15.9008 16.4955 15.9029 15.8328V11.6425C15.904 11.2316 15.9947 10.8258 16.1688 10.4536C16.3429 10.0814 16.5962 9.75171 16.9108 9.48748C17.2255 9.22325 17.5941 9.03088 17.9908 8.9238C18.3875 8.81673 18.8028 8.79752 19.2077 8.86753C19.8615 8.98086 20.4543 9.32137 20.8816 9.82903C21.3089 10.3367 21.5433 10.9789 21.5434 11.6425V15.8328C21.5443 16.2052 21.4707 16.5741 21.327 16.9177C21.1833 17.2614 20.9725 17.5728 20.7067 17.8338C20.446 18.095 20.1363 18.3022 19.7953 18.4433C19.4543 18.5845 19.0887 18.657 18.7197 18.6565C18.5523 18.6565 18.385 18.6426 18.2246 18.6147V18.6147ZM23.9907 18.6426C23.8232 18.6143 23.6715 18.5271 23.5628 18.3966C23.4541 18.2662 23.3956 18.1012 23.398 17.9314V5.34656C23.398 5.15134 23.4677 4.96309 23.6072 4.83061C23.6894 4.74942 23.7901 4.68928 23.9005 4.65529C24.011 4.62131 24.128 4.61448 24.2417 4.63539C24.5903 4.69117 24.8482 4.99097 24.8482 5.34656V12.7929L28.181 9.05578C28.3483 8.8745 28.5993 8.79084 28.8503 8.83267C28.9769 8.85385 29.0954 8.90854 29.1937 8.99107C29.2919 9.0736 29.3663 9.18095 29.409 9.30195C29.4517 9.42295 29.4612 9.55318 29.4365 9.6791C29.4118 9.80502 29.3539 9.92202 29.2686 10.0179L26.7517 12.8278L29.3523 17.5898C29.3991 17.6701 29.4294 17.759 29.4414 17.8512C29.4534 17.9434 29.4468 18.037 29.422 18.1266C29.3951 18.219 29.3497 18.3049 29.2885 18.3792C29.2274 18.4535 29.1519 18.5147 29.0664 18.5589C28.9188 18.6438 28.7458 18.6734 28.5784 18.6426C28.4742 18.625 28.3752 18.5846 28.2884 18.5243C28.2017 18.4641 28.1293 18.3854 28.0764 18.294L25.7337 13.9851L24.8413 14.9682V17.9314C24.8413 18.1237 24.7649 18.3082 24.6289 18.4441C24.4929 18.5801 24.3085 18.6565 24.1162 18.6565C24.0674 18.6565 24.0255 18.6565 23.9767 18.6426H23.9907ZM55.9304 18.6356C55.5383 18.5699 55.1659 18.4176 54.8402 18.1896C54.5145 17.9616 54.2438 17.6638 54.0479 17.3179C53.9521 17.1484 53.9271 16.9479 53.9782 16.7601C54.034 16.5788 54.1525 16.4254 54.3129 16.3278C54.4617 16.2465 54.6343 16.2194 54.8009 16.2511C55.0101 16.286 55.1983 16.4115 55.3029 16.5997C55.4912 16.9204 55.791 17.1296 56.1605 17.1924C56.351 17.2255 56.5466 17.2151 56.7325 17.1619C56.9184 17.1088 57.0899 17.0143 57.2342 16.8856C57.5131 16.6276 57.6525 16.2581 57.6177 15.8955C57.6099 15.7097 57.5586 15.5283 57.4677 15.366C57.3769 15.2037 57.2491 15.065 57.0948 14.9613L55.1426 13.5738C54.8245 13.3504 54.5596 13.0597 54.3668 12.7222C54.1739 12.3848 54.0579 12.009 54.027 11.6216C54.0018 11.2307 54.0659 10.8392 54.2145 10.4768C54.3631 10.1144 54.5922 9.79056 54.8846 9.52989C55.1698 9.26473 55.5105 9.06646 55.882 8.94947C56.2535 8.83248 56.6463 8.79973 57.032 8.85359C57.8547 8.99303 58.5241 9.46714 58.9076 10.1365C59 10.3037 59.024 10.5003 58.9746 10.6849C58.9252 10.8695 58.8062 11.0278 58.6426 11.1265C58.495 11.2114 58.322 11.2411 58.1546 11.2102C58.0504 11.1926 57.9514 11.1522 57.8646 11.092C57.7778 11.0317 57.7054 10.953 57.6526 10.8616C57.5651 10.7137 57.4459 10.5869 57.3037 10.4905C57.1615 10.3941 56.9996 10.3303 56.8298 10.3038C56.6561 10.2724 56.4774 10.2818 56.308 10.3314C56.1386 10.3811 55.983 10.4695 55.8537 10.5897C55.7275 10.7088 55.6289 10.8543 55.5651 11.0157C55.5012 11.1772 55.4736 11.3507 55.4842 11.5239C55.4981 11.8656 55.6934 12.2003 55.9862 12.3955L57.9384 13.7551C58.2698 13.9871 58.5438 14.2917 58.7396 14.6458C58.9353 14.9998 59.0476 15.3939 59.0679 15.7979C59.1002 16.2001 59.0383 16.6042 58.887 16.9782C58.7357 17.3522 58.4992 17.6858 58.1964 17.9523C57.9019 18.226 57.55 18.4306 57.1665 18.5512C56.783 18.6718 56.3774 18.7054 55.9792 18.6496L55.9234 18.6356H55.9304ZM61.5291 18.6565C61.3616 18.6271 61.2098 18.5398 61.1002 18.4098C60.9906 18.2798 60.9302 18.1154 60.9295 17.9454V5.3605C60.9286 5.26502 60.9467 5.17031 60.9828 5.08192C61.0189 4.99352 61.0723 4.91321 61.1398 4.84569C61.2073 4.77818 61.2876 4.7248 61.376 4.68869C61.4644 4.65258 61.5591 4.63446 61.6546 4.63539L61.7941 4.64236C62.1427 4.71209 62.3797 4.99795 62.3797 5.3605V8.91634H63.7532C64.1234 8.91542 64.4901 8.98765 64.8323 9.12888C65.1744 9.27011 65.4853 9.47755 65.7471 9.7393C66.0088 10.001 66.2163 10.3119 66.3575 10.6541C66.4987 10.9963 66.5709 11.363 66.57 11.7331V17.9384C66.5706 18.0437 66.5481 18.1478 66.504 18.2434C66.4598 18.339 66.3953 18.4237 66.3148 18.4915C66.2343 18.5594 66.1398 18.6087 66.0382 18.636C65.9365 18.6633 65.83 18.668 65.7264 18.6496C65.3778 18.5868 65.1268 18.287 65.1268 17.9314V11.7261C65.1268 11.5461 65.0912 11.3678 65.0221 11.2016C64.953 11.0353 64.8517 10.8844 64.7241 10.7574C64.5964 10.6304 64.4449 10.5299 64.2783 10.4616C64.1117 10.3933 63.9333 10.3587 63.7532 10.3596H62.3797V17.9384C62.3805 18.0444 62.3578 18.1492 62.3133 18.2454C62.2688 18.3416 62.2035 18.4267 62.1222 18.4947C62.0409 18.5627 61.9456 18.6118 61.843 18.6386C61.7405 18.6654 61.6333 18.6691 61.5291 18.6496V18.6565ZM71.4854 10.2968C71.2879 10.261 71.0848 10.2691 70.8907 10.3206C70.6966 10.3721 70.5163 10.4658 70.3625 10.595C70.2088 10.7241 70.0853 10.8855 70.0011 11.0678C69.9168 11.2501 69.8737 11.4486 69.8749 11.6494V15.8398C69.8739 16.0198 69.9086 16.1982 69.9769 16.3649C70.0451 16.5315 70.1457 16.6829 70.2726 16.8106C70.3996 16.9382 70.5506 17.0395 70.7168 17.1086C70.8831 17.1777 71.0614 17.2133 71.2414 17.2133C71.604 17.2133 71.9526 17.0738 72.2105 16.8159C72.3397 16.6884 72.442 16.5363 72.5114 16.3687C72.5809 16.2011 72.6161 16.0212 72.6149 15.8398V11.6425C72.6149 10.9731 72.1408 10.4014 71.4785 10.2899L71.4854 10.2968ZM70.7464 18.6077C70.0945 18.4928 69.5042 18.1513 69.0794 17.6437C68.6547 17.136 68.4228 16.4947 68.4246 15.8328V11.6425C68.4247 11.231 68.5147 10.8245 68.6884 10.4514C68.862 10.0784 69.1151 9.74775 69.4299 9.48275C69.7447 9.21775 70.1137 9.02476 70.5109 8.91729C70.9081 8.80981 71.324 8.79045 71.7295 8.86056C72.3845 8.97409 72.9782 9.31562 73.4056 9.82473C73.8331 10.3338 74.0667 10.9777 74.0652 11.6425V15.8328C74.0655 16.2041 73.9916 16.5718 73.848 16.9142C73.7043 17.2566 73.4937 17.5669 73.2285 17.8268C72.9087 18.148 72.5158 18.3868 72.0835 18.5228C71.6512 18.6588 71.1924 18.6879 70.7464 18.6077" fill="#333545"/>
<path fill-rule="evenodd" clip-rule="evenodd" d="M85.2001 9.71808C85.2239 9.62952 85.23 9.53712 85.2181 9.44619C85.2061 9.35527 85.1763 9.26759 85.1304 9.1882C85.0778 9.10357 85.0087 9.03035 84.9272 8.97287C84.8458 8.91539 84.7537 8.87481 84.6563 8.85353C84.4765 8.81954 84.2906 8.85546 84.1364 8.95393C83.9822 9.05241 83.8714 9.20602 83.8266 9.38342C83.8266 9.41828 83.0457 12.5628 82.4322 14.9542L82.4182 15.003L82.4043 14.9542L81.0098 9.39039C80.983 9.25457 80.9151 9.13026 80.8154 9.03426C80.7156 8.93825 80.5888 8.87517 80.4521 8.85353C80.4107 8.84538 80.3687 8.84071 80.3266 8.83958C80.0058 8.83958 79.7269 9.0627 79.6363 9.38342C79.6293 9.41828 78.8484 12.5628 78.2419 14.9542L78.2279 15.003L78.214 14.9542C77.6213 12.5628 76.8195 9.41828 76.8195 9.38342C76.7867 9.24997 76.7158 9.1289 76.6156 9.03486C76.5154 8.94082 76.39 8.87784 76.2548 8.85353C76.1387 8.83301 76.0193 8.84166 75.9074 8.87871C75.7955 8.91576 75.6946 8.98004 75.6137 9.06578C75.5328 9.15151 75.4745 9.25601 75.444 9.36987C75.4135 9.48374 75.4118 9.6034 75.439 9.71808L77.5377 18.1057C77.5773 18.2594 77.6663 18.3958 77.791 18.4941C77.9157 18.5923 78.0692 18.6469 78.2279 18.6495C78.5696 18.6495 78.8415 18.4264 78.9112 18.1057L80.3056 12.5349L80.3266 12.4861L80.3405 12.5349C80.9541 14.9542 81.7349 18.1126 81.7349 18.1126C81.7766 18.2634 81.8654 18.3968 81.9883 18.4934C82.1113 18.59 82.2619 18.6447 82.4182 18.6495C82.5789 18.6545 82.7361 18.6027 82.8624 18.5033C82.9886 18.4038 83.0757 18.263 83.1085 18.1057L85.2001 9.71808V9.71808Z" fill="#333545"/>
</g>
<defs>
<clipPath id="clip0_102_4">
<rect width="85.7583" height="25.7972" fill="white" transform="translate(0.208313 0.975067)"/>
</clipPath>
</defs>
</svg>
