<svg width="70" height="22" viewBox="0 0 70 22" fill="none" xmlns="http://www.w3.org/2000/svg">
<path d="M51.9866 20.524L57.8012 14.0841L51.9866 7.64325H58.1216L61.0014 10.7718L63.7745 7.64325H69.6955L63.9085 14.0575L69.7749 20.524H63.6148L60.761 17.3698L57.9342 20.524H51.9866Z" fill="#FF6600"/>
<path d="M51.9871 4.75588H45.4017V7.64328H51.9871V11.9948H45.4017V15.989H51.9871V20.5241H40.5615V0.233398H51.9871V4.75588Z" fill="#FF6600"/>
<path d="M35.7415 0.233398V8.53732H35.6885C34.6214 7.32833 33.2882 6.90821 31.7413 6.90821C28.5725 6.90821 26.1856 9.03155 25.3477 11.8389C24.3922 8.74559 21.928 6.85024 18.274 6.85024C15.3065 6.85024 12.9633 8.16321 11.7404 10.3027V7.64358H5.60665V4.75648H12.3003V0.233398H0.138916V20.5244H5.60665V11.9948H11.0565C10.894 12.6214 10.8073 13.2923 10.8073 14.0002C10.8073 18.2328 14.0876 21.2027 18.274 21.2027C21.7943 21.2027 24.1143 19.5735 25.3414 16.6034H20.6557C20.0219 17.4956 19.5411 17.7607 18.274 17.7607C16.8046 17.7607 15.5378 16.497 15.5378 14.9991H25.0789C25.4926 18.361 28.1494 21.2603 31.7952 21.2603C33.3679 21.2603 34.8078 20.4978 35.6885 19.2102H35.7415V20.5238H40.5614V0.233398H35.7415ZM15.69 12.0555C15.9941 10.7667 17.0081 9.92439 18.274 9.92439C19.6675 9.92439 20.63 10.7407 20.8831 12.0555C20.9898 12.0555 15.69 12.0555 15.69 12.0555ZM32.8165 17.4347C31.0398 17.4347 29.9358 15.8029 29.9358 14.0991C29.9358 12.2778 30.8961 10.5265 32.8165 10.5265C34.8078 10.5265 35.6012 12.2778 35.6012 14.0991C35.6009 15.8262 34.7602 17.4347 32.8165 17.4347Z" fill="#652C8F"/>
</svg>
