<svg width="68" height="24" viewBox="0 0 68 24" fill="none" xmlns="http://www.w3.org/2000/svg">
<g clip-path="url(#clip0_102_41)">
<path d="M29.1561 12.1445C29.1561 15.2414 26.7233 17.5234 23.7379 17.5234C20.7524 17.5234 18.3196 15.2414 18.3196 12.1445C18.3196 9.02578 20.7524 6.76557 23.7379 6.76557C26.7233 6.76557 29.1561 9.02578 29.1561 12.1445ZM26.7842 12.1445C26.7842 10.2092 25.3743 8.88513 23.7379 8.88513C22.1014 8.88513 20.6915 10.2092 20.6915 12.1445C20.6915 14.0603 22.1014 15.4039 23.7379 15.4039C25.3743 15.4039 26.7842 14.0579 26.7842 12.1445Z" fill="#EA4335"/>
<path d="M40.8455 12.1445C40.8455 15.2414 38.4127 17.5234 35.4272 17.5234C32.4417 17.5234 30.009 15.2414 30.009 12.1445C30.009 9.02821 32.4417 6.76557 35.4272 6.76557C38.4127 6.76557 40.8455 9.02578 40.8455 12.1445ZM38.4736 12.1445C38.4736 10.2092 37.0637 8.88513 35.4272 8.88513C33.7908 8.88513 32.3809 10.2092 32.3809 12.1445C32.3809 14.0603 33.7908 15.4039 35.4272 15.4039C37.0637 15.4039 38.4736 14.0579 38.4736 12.1445Z" fill="#FBBC05"/>
<path d="M52.0472 7.09054V16.7474C52.0472 20.7197 49.6948 22.3421 46.9139 22.3421C44.2961 22.3421 42.7206 20.5985 42.1264 19.1725L44.1914 18.3164C44.5591 19.1919 45.4601 20.225 46.9115 20.225C48.6916 20.225 49.7947 19.1313 49.7947 17.0723V16.2987H49.7119C49.181 16.9511 48.1583 17.521 46.8676 17.521C44.167 17.521 41.6929 15.1783 41.6929 12.1639C41.6929 9.12764 44.167 6.76557 46.8676 6.76557C48.1558 6.76557 49.1786 7.33547 49.7119 7.96843H49.7947V7.09296H52.0472V7.09054ZM49.9627 12.1639C49.9627 10.2699 48.694 8.88513 47.0795 8.88513C45.4431 8.88513 44.0721 10.2699 44.0721 12.1639C44.0721 14.0385 45.4431 15.4039 47.0795 15.4039C48.694 15.4039 49.9627 14.0385 49.9627 12.1639Z" fill="#4285F4"/>
<path d="M55.7597 1.43036V17.1936H53.4463V1.43036H55.7597Z" fill="#34A853"/>
<path d="M64.7757 13.9149L66.6167 15.1371C66.0225 16.0126 64.5907 17.521 62.1165 17.521C59.0483 17.521 56.7568 15.159 56.7568 12.1421C56.7568 8.94337 59.0677 6.76319 61.8511 6.76319C64.654 6.76319 66.025 8.9846 66.473 10.185L66.719 10.7962L59.4988 13.7742C60.0515 14.8534 60.9111 15.4039 62.1165 15.4039C63.3244 15.4039 64.1621 14.8122 64.7757 13.9149ZM59.1091 11.9796L63.9356 9.98375C63.6702 9.31199 62.8714 8.84394 61.9315 8.84394C60.7261 8.84394 59.0483 9.90372 59.1091 11.9796V11.9796Z" fill="#EA4335"/>
<path d="M9.56256 10.7453V8.46329H17.2844C17.3599 8.86101 17.3989 9.33149 17.3989 9.84076C17.3989 11.5529 16.9289 13.67 15.4142 15.1785C13.941 16.7063 12.0586 17.5211 9.565 17.5211C4.94308 17.5211 1.05658 13.7719 1.05658 9.169C1.05658 4.56612 4.94308 0.816887 9.565 0.816887C12.1219 0.816887 13.9434 1.81604 15.312 3.11833L13.695 4.72861C12.7136 3.81191 11.3841 3.09893 9.56256 3.09893C6.18744 3.09893 3.54774 5.80779 3.54774 9.169C3.54774 12.5302 6.18744 15.2391 9.56256 15.2391C11.7518 15.2391 12.9986 14.3636 13.7973 13.5682C14.445 12.9231 14.8712 12.0015 15.0392 10.7429L9.56256 10.7453V10.7453Z" fill="#4285F4"/>
</g>
<defs>
<clipPath id="clip0_102_41">
<rect width="66.2361" height="22.3111" fill="white" transform="translate(0.969421 0.702835)"/>
</clipPath>
</defs>
</svg>
