<svg width="121" height="24" viewBox="0 0 121 24" fill="none" xmlns="http://www.w3.org/2000/svg">
<g clip-path="url(#clip0_22_1171)">
<path d="M48.0528 5.11493H45.5553V16.3843H52.4692V14.1761H48.0528V5.11493Z" fill="#6CD3FF"/>
<path d="M52.7073 12.5615C52.7073 14.9677 54.3216 16.5667 56.7581 16.5667C59.1795 16.5667 60.7938 14.9677 60.7938 12.5615C60.7938 10.1554 59.1795 8.54108 56.7581 8.54108C54.3216 8.54108 52.7073 10.1554 52.7073 12.5615ZM55.0677 12.5463C55.0677 11.4042 55.7378 10.6427 56.7581 10.6427C57.7633 10.6427 58.4334 11.4042 58.4334 12.5463C58.4334 13.7037 57.7633 14.4652 56.7581 14.4652C55.7378 14.4652 55.0677 13.7037 55.0677 12.5463Z" fill="#6CD3FF"/>
<path d="M61.1712 12.4399C61.1712 14.7394 62.6636 16.2927 64.7804 16.2927C65.8008 16.2927 66.684 15.9272 67.1256 15.3333V16.3841C67.1256 17.4349 66.4708 18.1354 65.3134 18.1354C64.2778 18.1354 63.5621 17.6481 63.5164 16.7801H61.1407C61.3539 18.8664 62.9682 20.2674 65.1763 20.2674C67.7805 20.2674 69.4252 18.5771 69.4252 15.8968V8.76968H67.3084L67.1866 9.54632C66.7602 8.92196 65.8616 8.5108 64.8261 8.5108C62.694 8.5108 61.1712 10.1098 61.1712 12.4399ZM63.5469 12.3789C63.5469 11.2824 64.2778 10.5514 65.2068 10.5514C66.2881 10.5514 67.08 11.2672 67.08 12.3789C67.08 13.4906 66.3033 14.2521 65.222 14.2521C64.2931 14.2521 63.5469 13.4906 63.5469 12.3789Z" fill="#6CD3FF"/>
<path d="M70.1093 12.5615C70.1093 14.9677 71.7236 16.5667 74.1604 16.5667C76.5818 16.5667 78.1959 14.9677 78.1959 12.5615C78.1959 10.1554 76.5818 8.54108 74.1604 8.54108C71.7236 8.54108 70.1093 10.1554 70.1093 12.5615ZM72.4696 12.5463C72.4696 11.4042 73.1397 10.6427 74.1604 10.6427C75.1651 10.6427 75.8351 11.4042 75.8351 12.5463C75.8351 13.7037 75.1651 14.4652 74.1604 14.4652C73.1397 14.4652 72.4696 13.7037 72.4696 12.5463Z" fill="#6CD3FF"/>
<path d="M80.2177 7.5818C80.9484 7.5818 81.5424 6.98787 81.5424 6.24166C81.5424 5.49544 80.9484 4.91675 80.2177 4.91675C79.4717 4.91675 78.8776 5.49544 78.8776 6.24166C78.8776 6.98787 79.4717 7.5818 80.2177 7.5818ZM79.0296 16.3841H81.3904V8.76967H79.0296V16.3841Z" fill="#6CD3FF"/>
<path d="M82.7641 20.0391H85.0789V15.6228C85.5202 16.2015 86.5256 16.5974 87.5763 16.5974C89.8451 16.5974 91.2158 14.8614 91.1552 12.4552C91.0938 10.0033 89.6778 8.52612 87.561 8.52612C86.4796 8.52612 85.4596 8.99821 85.0329 9.69878L84.9108 8.7698H82.7641V20.0391ZM85.1242 12.577C85.1242 11.4349 85.8856 10.6734 86.9823 10.6734C88.0937 10.6734 88.7944 11.4501 88.7944 12.577C88.7944 13.704 88.0937 14.4806 86.9823 14.4806C85.8856 14.4806 85.1242 13.7192 85.1242 12.577Z" fill="#6CD3FF"/>
<path d="M91.4058 13.9781C91.4665 15.5162 92.6852 16.5822 94.604 16.5822C96.4467 16.5822 97.7261 15.6075 97.7261 14.039C97.7261 12.9121 97.0561 12.1658 95.8067 11.8612L94.452 11.5262C93.9646 11.4044 93.6599 11.2825 93.6599 10.8866C93.6599 10.4906 93.9793 10.2317 94.452 10.2317C94.9847 10.2317 95.3347 10.582 95.32 11.0998H97.4368C97.3754 9.51597 96.1727 8.52612 94.4973 8.52612C92.8072 8.52612 91.5432 9.53124 91.5432 11.0541C91.5432 12.0744 92.1065 12.9121 93.6139 13.308L94.954 13.6582C95.35 13.7648 95.5173 13.9476 95.5173 14.2065C95.5173 14.5872 95.1673 14.8309 94.5733 14.8309C93.8879 14.8309 93.5226 14.5111 93.5226 13.9781H91.4058Z" fill="#6CD3FF"/>
<path d="M101.315 16.5819C102.244 16.5819 103.173 16.1555 103.645 15.5311L103.798 16.384H106.006V8.76953H103.66V12.7291C103.66 13.8712 103.326 14.4955 102.244 14.4955C101.406 14.4955 100.858 14.1149 100.858 12.6986V8.76953H98.5129V13.5514C98.5129 15.3637 99.5183 16.5819 101.315 16.5819Z" fill="#6CD3FF"/>
<path d="M109.725 16.3841V12.2266C109.725 10.9474 110.41 10.5819 111.081 10.5819C111.827 10.5819 112.314 11.0388 112.314 11.983V16.3841H114.629V12.2266C114.629 10.9322 115.299 10.5667 115.969 10.5667C116.715 10.5667 117.217 11.0235 117.217 11.983V16.3841H119.502V11.4043C119.502 9.66819 118.588 8.5108 116.623 8.5108C115.527 8.5108 114.629 9.04376 114.233 9.86613C113.776 9.04376 112.984 8.5108 111.72 8.5108C110.883 8.5108 110.106 8.89149 109.649 9.50065L109.558 8.76968H107.364V16.3841H109.725Z" fill="#6CD3FF"/>
<path d="M0.933105 11.889C0.933105 5.72797 5.92761 0.733459 12.0887 0.733459H26.7303C32.8914 0.733459 37.8859 5.72797 37.8859 11.889V23.0446H12.0887C5.92761 23.0446 0.933105 18.0501 0.933105 11.889Z" fill="url(#paint0_linear_22_1171)"/>
<path d="M26.7303 4.91675H12.0887C8.23803 4.91675 5.11646 8.03832 5.11646 11.889C5.11646 15.7396 8.23803 18.8612 12.0887 18.8612H26.7303C30.581 18.8612 33.7026 15.7396 33.7026 11.889C33.7026 8.03832 30.581 4.91675 26.7303 4.91675Z" fill="#E1F2FF"/>
<path d="M12.0887 15.3751C14.014 15.3751 15.5748 13.8143 15.5748 11.889C15.5748 9.96368 14.014 8.40289 12.0887 8.40289C10.1633 8.40289 8.60254 9.96368 8.60254 11.889C8.60254 13.8143 10.1633 15.3751 12.0887 15.3751Z" fill="black"/>
<path d="M10.6942 11.1917C11.0792 11.1917 11.3914 10.8796 11.3914 10.4945C11.3914 10.1095 11.0792 9.7973 10.6942 9.7973C10.3091 9.7973 9.99695 10.1095 9.99695 10.4945C9.99695 10.8796 10.3091 11.1917 10.6942 11.1917Z" fill="white"/>
<path d="M27.4275 15.3751C29.3528 15.3751 30.9136 13.8143 30.9136 11.889C30.9136 9.96368 29.3528 8.40289 27.4275 8.40289C25.5022 8.40289 23.9414 9.96368 23.9414 11.889C23.9414 13.8143 25.5022 15.3751 27.4275 15.3751Z" fill="black"/>
<path d="M26.0331 11.1917C26.4182 11.1917 26.7303 10.8796 26.7303 10.4945C26.7303 10.1095 26.4182 9.7973 26.0331 9.7973C25.648 9.7973 25.3359 10.1095 25.3359 10.4945C25.3359 10.8796 25.648 11.1917 26.0331 11.1917Z" fill="white"/>
</g>
<defs>
<linearGradient id="paint0_linear_22_1171" x1="9.13054" y1="21.0929" x2="20.2638" y2="-1.8854" gradientUnits="userSpaceOnUse">
<stop stop-color="#6BD4FF"/>
<stop offset="1" stop-color="#8C70FF"/>
</linearGradient>
<clipPath id="clip0_22_1171">
<rect width="119.225" height="22.3111" fill="white" transform="translate(0.93335 0.733459)"/>
</clipPath>
</defs>
</svg>
