<svg width="86" height="20" viewBox="0 0 86 20" fill="none" xmlns="http://www.w3.org/2000/svg">
<g clip-path="url(#clip0_102_50)">
<path d="M30.4947 11.4023L29.9877 12.8356H29.9455C29.861 12.5124 29.7061 12.0206 29.4526 11.4304L26.7346 4.6149H24.0729V15.4775H25.8332V8.77446C25.8332 8.35288 25.8332 7.87509 25.8192 7.28489C25.8051 6.98978 25.7769 6.76494 25.7628 6.59631H25.8051C25.8896 7.01789 25.9882 7.32705 26.0586 7.52378L29.3258 15.4494H30.5651L33.8042 7.45352C33.8746 7.27084 33.945 6.90547 34.0154 6.59631H34.0577C34.0154 7.39731 33.9873 8.11399 33.9732 8.54962V15.4354H35.8462V4.5868H33.2831L30.4947 11.4023V11.4023ZM37.6207 7.65025H39.4515V15.4354H37.6207V7.65025ZM38.5502 4.36196C38.2403 4.36196 37.9868 4.47438 37.7756 4.67111C37.5644 4.86785 37.4517 5.1208 37.4517 5.42995C37.4517 5.72506 37.5644 5.978 37.7756 6.17474C37.9868 6.37147 38.2403 6.46984 38.5502 6.46984C38.86 6.46984 39.1276 6.35742 39.3247 6.17474C39.536 5.978 39.6486 5.72506 39.6486 5.42995C39.6486 5.13485 39.536 4.8819 39.3247 4.67111C39.1416 4.47438 38.8741 4.36196 38.5502 4.36196V4.36196ZM45.9437 7.57999C45.6057 7.50973 45.2537 7.46757 44.9157 7.46757C44.0848 7.46757 43.3243 7.65025 42.6906 8.01562C42.0568 8.38099 41.5498 8.88688 41.2259 9.51924C40.8879 10.1657 40.7189 10.9104 40.7189 11.7676C40.7189 12.5124 40.8879 13.1729 41.2118 13.7772C41.5357 14.3674 41.9864 14.8452 42.592 15.1684C43.1694 15.4916 43.8454 15.6602 44.6058 15.6602C45.479 15.6602 46.2254 15.4775 46.8169 15.1403L46.8309 15.1262V13.4399L46.7605 13.4961C46.493 13.6928 46.1831 13.8615 45.8733 13.9598C45.5494 14.0723 45.2537 14.1285 45.0002 14.1285C44.2678 14.1285 43.6904 13.9177 43.282 13.454C42.8595 13.0043 42.6483 12.386 42.6483 11.6131C42.6483 10.8121 42.8595 10.1797 43.2961 9.71598C43.7327 9.25224 44.3101 9.01335 45.0142 9.01335C45.6057 9.01335 46.2113 9.21009 46.7605 9.60356L46.8309 9.65977V7.87509L46.8169 7.86104C46.5775 7.76267 46.3099 7.65025 45.9437 7.57999V7.57999ZM51.9853 7.52378C51.5347 7.52378 51.1122 7.66431 50.746 7.95941C50.4362 8.21236 50.2249 8.57772 50.0419 9.01335H50.0278V7.65025H48.197V15.4354H50.0278V11.4585C50.0278 10.784 50.1686 10.2219 50.4784 9.81435C50.7883 9.39277 51.1826 9.18198 51.6614 9.18198C51.8304 9.18198 51.9994 9.22414 52.2106 9.25224C52.4078 9.30845 52.5486 9.36466 52.6472 9.43493L52.7176 9.49114V7.66431L52.6754 7.65025C52.5486 7.56594 52.2951 7.52378 51.9853 7.52378V7.52378ZM56.9707 7.48162C55.6891 7.48162 54.6611 7.86104 53.9428 8.60583C53.2105 9.35061 52.8585 10.3764 52.8585 11.6693C52.8585 12.8778 53.2246 13.8615 53.9288 14.5782C54.6329 15.2808 55.5905 15.6462 56.7876 15.6462C58.041 15.6462 59.0409 15.2667 59.7591 14.5079C60.4914 13.7491 60.8435 12.7373 60.8435 11.4866C60.8435 10.25 60.5055 9.2663 59.8154 8.54962C59.1535 7.83294 58.1818 7.48162 56.9707 7.48162V7.48162ZM58.4353 13.468C58.0973 13.9036 57.5622 14.1144 56.9003 14.1144C56.2384 14.1144 55.7032 13.9036 55.323 13.4399C54.9427 13.0043 54.7597 12.3719 54.7597 11.5709C54.7597 10.7418 54.9568 10.1094 55.323 9.65977C55.7032 9.21009 56.2243 8.98525 56.8862 8.98525C57.534 8.98525 58.041 9.19603 58.4071 9.63166C58.7733 10.0673 58.9705 10.6997 58.9705 11.5288C58.9423 12.3719 58.7874 13.0324 58.4353 13.468V13.468ZM64.9276 10.8823C64.3502 10.6434 63.984 10.4608 63.815 10.3062C63.6742 10.1657 63.6038 9.96892 63.6038 9.71598C63.6038 9.50519 63.6883 9.2944 63.8995 9.15388C64.1107 9.01335 64.3502 8.94309 64.7022 8.94309C65.0121 8.94309 65.336 8.9993 65.6458 9.08361C65.9556 9.16793 66.2373 9.2944 66.4626 9.46303L66.533 9.51924V7.80483L66.4908 7.79078C66.2795 7.70646 65.9979 7.62215 65.6599 7.55189C65.3219 7.49568 65.0121 7.46757 64.7586 7.46757C63.8854 7.46757 63.1672 7.67836 62.6039 8.14209C62.0405 8.57772 61.773 9.16793 61.773 9.8565C61.773 10.2219 61.8293 10.5451 61.956 10.8121C62.0828 11.0791 62.2659 11.332 62.5194 11.5428C62.7729 11.7395 63.139 11.9644 63.646 12.1752C64.0685 12.3579 64.3924 12.4984 64.5896 12.6108C64.7867 12.7232 64.9135 12.8497 65.012 12.9481C65.0825 13.0605 65.1247 13.201 65.1247 13.3837C65.1247 13.9036 64.7304 14.1566 63.9277 14.1566C63.6178 14.1566 63.2939 14.1004 62.9137 13.9739C62.5334 13.8474 62.1814 13.6647 61.8856 13.454L61.8152 13.3977V15.1824L61.8575 15.1965C62.125 15.3229 62.449 15.4073 62.8433 15.5056C63.2376 15.5759 63.5897 15.6321 63.8995 15.6321C64.8431 15.6321 65.6176 15.4213 66.1669 14.9576C66.7302 14.5079 67.0259 13.9317 67.0259 13.187C67.0259 12.667 66.8851 12.2033 66.5753 11.852C66.1669 11.5147 65.6599 11.1634 64.9276 10.8823V10.8823ZM71.8564 7.48162C70.5748 7.48162 69.5468 7.86104 68.8285 8.60583C68.1103 9.35061 67.7441 10.3764 67.7441 11.6693C67.7441 12.8778 68.1103 13.8615 68.8144 14.5782C69.5186 15.2808 70.4762 15.6462 71.6733 15.6462C72.9267 15.6462 73.9266 15.2667 74.6448 14.5079C75.3771 13.7491 75.7292 12.7373 75.7292 11.4866C75.7292 10.25 75.3912 9.2663 74.7011 8.54962C74.0392 7.83294 73.0675 7.48162 71.8564 7.48162V7.48162ZM73.3069 13.468C72.9689 13.9036 72.4338 14.1144 71.7719 14.1144C71.0959 14.1144 70.5748 13.9036 70.1946 13.4399C69.8143 13.0043 69.6313 12.3719 69.6313 11.5709C69.6313 10.7418 69.8284 10.1094 70.1946 9.65977C70.5748 9.21009 71.0959 8.98525 71.7578 8.98525C72.3915 8.98525 72.9126 9.19603 73.2788 9.63166C73.6449 10.0673 73.8421 10.6997 73.8421 11.5288C73.8421 12.3719 73.659 13.0324 73.3069 13.468V13.468ZM85.5168 9.15388V7.65025H83.672V5.34564L83.6156 5.35969L81.8694 5.87963L81.8271 5.89369V7.65025H79.0668V6.66658C79.0668 6.21689 79.1795 5.86558 79.3767 5.64074C79.5738 5.4159 79.8696 5.30348 80.2357 5.30348C80.4892 5.30348 80.7568 5.35969 81.0525 5.48616L81.123 5.52832V3.94038L81.0807 3.92633C80.8272 3.84201 80.4892 3.7858 80.0527 3.7858C79.5034 3.7858 79.0246 3.91228 78.588 4.12307C78.1515 4.36196 77.8275 4.68517 77.5881 5.1208C77.3487 5.54237 77.222 6.02016 77.222 6.56821V7.65025H75.9404V9.13982H77.222V15.4354H79.0668V9.15388H81.8271V13.1589C81.8271 14.803 82.6017 15.6321 84.1508 15.6321C84.4043 15.6321 84.6719 15.5899 84.9254 15.5478C85.1929 15.4916 85.3901 15.4213 85.5028 15.3651L85.5168 15.351V13.8474L85.4464 13.9036C85.3338 13.9739 85.2352 14.0301 85.0662 14.0723C84.9254 14.1144 84.7986 14.1285 84.7 14.1285C84.3339 14.1285 84.0804 14.0442 83.8973 13.8334C83.7283 13.6366 83.6438 13.3134 83.6438 12.8356V9.15388H85.5168V9.15388Z" fill="#737373"/>
<path d="M0.469482 0.961166H9.10234V9.57537H0.469482V0.961166Z" fill="#F25022"/>
<path d="M10.0032 0.961166H18.636V9.57537H10.0032V0.961166Z" fill="#7FBA00"/>
<path d="M0.469421 10.4747H9.10228V19.0889H0.469421V10.4747Z" fill="#00A4EF"/>
<path d="M10.0032 10.4748H18.636V19.089H10.0032V10.4748Z" fill="#FFB900"/>
</g>
<defs>
<clipPath id="clip0_102_50">
<rect width="85.0611" height="18.1278" fill="white" transform="translate(0.469482 0.961166)"/>
</clipPath>
</defs>
</svg>
