<svg width="69" height="25" viewBox="0 0 69 25" fill="none" xmlns="http://www.w3.org/2000/svg">
<g clip-path="url(#clip0_102_26)">
<path fill-rule="evenodd" clip-rule="evenodd" d="M60.3201 11.7168L55.9714 19.2708L52.2611 19.2856L60.3201 5.06742L68.349 19.2856H64.5799L60.3201 11.7161V11.7168ZM48.6103 15.9972H52.7658L50.8365 19.2856H45.4202L45.4349 15.2815V5.15483H48.6258L48.6111 15.9972H48.6103ZM37.2135 5.15557C41.1758 5.17039 44.3813 8.32619 44.3667 12.2272C44.352 16.1142 41.1464 19.2708 37.1834 19.2708C33.2358 19.2559 30.0303 16.1001 30.0303 12.1983C30.045 8.31138 33.2505 5.15557 37.2135 5.15557V5.15557ZM37.1989 15.9831C39.3207 15.9831 41.0267 14.3022 41.0267 12.2272C41.0421 10.153 39.3207 8.45731 37.2135 8.45731C35.1057 8.4425 33.3842 10.1382 33.3842 12.2132C33.3696 14.2874 35.091 15.9831 37.1981 15.9831H37.1989ZM24.124 11.1049C24.0799 10.5197 23.9308 9.74556 23.7082 9.00106C23.2501 7.46325 22.4537 6.0495 21.3784 4.86518C20.8141 4.2518 20.1764 3.68138 19.2257 3.00948C18.501 2.64886 17.7884 2.26392 17.0892 1.85531C16.6292 1.59233 16.0797 1.27008 15.3531 1.03673C14.4915 0.83168 13.6108 0.719193 12.7257 0.70115C11.8661 0.671518 11.0043 0.745598 10.1734 0.905611C9.2976 1.05155 8.57024 1.2849 7.60557 1.51899C5.42349 2.4687 3.7322 3.90066 2.27748 5.80081C-2.79788 12.9458 1.78816 22.9555 10.2623 24.1385C11.6575 24.3289 13.0527 24.2556 14.373 23.9489L15.3082 23.7007C15.3376 23.6859 15.3825 23.6711 15.4118 23.6711L16.4808 23.2622C16.5396 23.2325 16.5844 23.2177 16.6439 23.1888L17.0892 22.9844C17.9434 22.5593 18.7453 22.0347 19.4784 21.4213C18.8111 22.0327 18.0854 22.5758 17.3118 23.0429L17.3559 23.0725C17.505 23.0281 17.638 22.9844 17.7864 22.9555C17.7864 22.9555 17.7864 23.1888 17.757 23.1451C17.5197 23.3207 17.8907 23.1599 18.3654 22.911C18.8407 22.6629 19.3006 22.3554 19.7158 22.005C20.3248 21.4939 20.859 20.9383 21.6157 20.033C22.3872 18.6737 23.3526 17.4899 23.7978 15.8972C23.9462 15.4734 24.0792 14.9771 24.1688 14.4652C24.257 13.954 24.3172 13.4281 24.3172 12.8873C24.3025 12.3465 24.243 11.7909 24.124 11.1049V11.1049ZM13.1416 23.1162C15.7388 22.7066 17.9201 21.2605 19.7011 19.2878C20.1911 18.5714 20.5768 17.9136 21.0515 17.198C21.6451 15.7364 21.601 14.4363 21.7935 13.5162C22.0316 11.8494 21.4673 10.5056 20.9927 9.07366C20.2653 7.4076 19.3006 6.16602 17.6086 5.2015C13.3341 2.54203 7.51667 3.28654 4.74168 7.26166C4.72699 7.26166 4.65205 7.36389 4.50364 7.56835C4.69687 6.75051 5.18692 6.26825 5.67623 5.80007C7.13095 4.6022 8.82298 3.65175 10.7523 3.18505C12.9344 2.95096 15.1003 3.18505 17.0444 4.13475C19.9538 5.80007 21.8831 8.41657 22.3725 11.5131V14.3778C21.7641 19.0685 17.757 22.634 13.1416 23.1162V23.1162ZM23.8125 12.4487C23.7082 5.58153 16.9261 0.949318 10.3218 1.88495C8.39245 2.36647 6.28457 3.33099 4.78577 4.67554C4.05841 5.15705 3.7175 6.04898 2.99014 6.76459C0.0807003 11.0464 0.586179 16.5261 4.20682 19.8582C4.67125 20.3212 5.16716 20.7509 5.69093 21.1442C2.66393 19.3167 1.29811 16.5542 0.82349 13.1947C0.82349 11.9961 1.0608 10.8123 1.3128 9.61444C3.00557 4.3681 8.33293 0.554472 14.1364 1.51899C15.1011 1.75308 16.0657 2.00125 17.0458 2.23534C18.2625 2.71686 19.4645 3.43322 20.4292 4.38366C21.3938 5.33262 22.1212 6.53124 22.8485 7.71429C23.3379 8.66474 23.5759 9.86261 23.8132 10.8123C23.8573 11.3531 23.8573 11.9087 23.8132 12.4495L23.8125 12.4487Z" fill="black"/>
<path fill-rule="evenodd" clip-rule="evenodd" d="M17.787 12.5517C17.787 15.5037 15.3236 17.9002 12.2811 17.9002C9.23945 17.9002 6.77524 15.5037 6.77524 12.5517C6.77524 9.60031 9.23871 7.20383 12.2811 7.20383C15.3236 7.20383 17.787 9.60031 17.787 12.5524V12.5517Z" fill="white"/>
<path fill-rule="evenodd" clip-rule="evenodd" d="M17.8178 11.6456C17.7436 11.2367 17.6246 10.9152 17.5063 10.4625C17.0309 9.46839 16.3337 8.69426 15.4131 8.03643C11.9703 5.74292 7.23581 7.94901 6.7318 11.8656C6.53931 13.4146 7.08813 14.9051 8.0675 16.0452C7.77068 15.7378 7.44447 15.417 7.22185 15.0511L7.19246 15.0807C7.22185 15.1681 7.34087 15.2266 7.37026 15.314C7.37026 15.314 7.25124 15.314 7.28136 15.2992C7.19246 15.1977 7.26667 15.3585 7.39965 15.577C7.51867 15.7963 7.66708 16.0015 7.84488 16.1911C8.09762 16.4689 8.36432 16.7171 8.80955 17.0534C9.46344 17.389 10.0417 17.8276 10.7984 18.032C11.0063 18.0913 11.2436 18.1491 11.4817 18.1928C11.7337 18.2372 11.971 18.252 12.2384 18.252C12.4904 18.252 12.7579 18.2224 13.0841 18.1631C13.4205 18.1232 13.753 18.0551 14.0781 17.9594C14.8045 17.739 15.4735 17.3596 16.0376 16.8482C16.3197 16.586 16.7209 16.2497 17.0317 15.8111C17.2844 15.3148 17.3138 15.0659 17.4328 14.8466C17.5511 14.6273 17.6995 14.3791 17.8038 14.0428C17.8889 13.6438 17.9385 13.238 17.9523 12.8301C17.9376 12.4212 17.9082 12.0264 17.8185 11.6463L17.8178 11.6456ZM14.2853 8.92835C14.7901 9.22023 14.8643 9.26393 14.5968 9.07429C14.9833 9.1617 15.2206 9.38098 15.4579 9.60026C16.0369 10.2581 16.5115 11.0322 16.7488 11.9234C16.8825 12.9316 16.7782 13.9399 16.3484 14.8318C15.5769 16.1904 14.3448 17.0964 12.8754 17.3446C12.7123 17.3446 12.5345 17.3446 12.3707 17.3594C12.7865 17.286 13.054 17.0231 13.8107 16.7453C14.6262 16.4534 15.5468 15.0948 15.9928 14.3051C17.2984 12.1568 15.7547 10.1699 14.2853 8.92835V8.92835ZM11.4956 17.3735C9.24009 17.1401 7.50324 15.2844 7.26593 13.1361C7.47312 14.3347 8.18579 15.2548 9.15046 16.0734C9.4921 16.2926 9.99611 16.5993 10.3377 16.8186C10.9167 17.0379 11.2576 17.272 11.8219 17.3742H11.4956V17.3735ZM17.5651 13.4724C17.4622 13.9258 17.3579 14.3636 17.2535 14.817C17.0309 15.3726 16.7047 15.9422 16.2595 16.3949C15.8143 16.8482 15.25 17.1986 14.6865 17.535C14.2412 17.7683 13.677 17.8853 13.2171 18.0017C12.9496 18.0313 12.6381 17.9142 12.3707 17.9002C15.6658 17.812 17.9214 14.7295 17.4321 11.6752C17.194 10.7841 16.7194 10.0092 16.1405 9.23504C15.9032 8.89872 15.4425 8.69426 15.1016 8.35794C13.0385 7.05783 10.3084 7.32082 8.75004 9.03058C8.53153 9.25526 8.32806 9.49432 8.14097 9.74619C8.97266 8.51869 10.3084 7.65714 11.9108 7.40823C12.475 7.39342 13.054 7.49639 13.6175 7.59862C16.1111 8.35794 17.9662 10.7841 17.5651 13.4732V13.4724Z" fill="#D7DF23"/>
</g>
<defs>
<clipPath id="clip0_102_26">
<rect width="68.3278" height="23.7056" fill="white" transform="translate(0.097229 0.672287)"/>
</clipPath>
</defs>
</svg>
