<svg width="60" height="24" viewBox="0 0 60 24" fill="none" xmlns="http://www.w3.org/2000/svg">
<g clip-path="url(#clip0_102_58)">
<path d="M49.1306 22.0657C54.6934 22.0657 59.2196 17.4663 59.2196 11.8138C59.2196 6.1579 54.6934 1.56181 49.1306 1.56181C43.5668 1.56181 39.0417 6.1579 39.0417 11.8138C39.0417 17.4663 43.5668 22.0657 49.1306 22.0657ZM49.1306 8.15809C51.1131 8.15809 52.7275 9.79796 52.7275 11.8127C52.7275 13.8273 51.112 15.465 49.1295 15.465C47.146 15.465 45.5338 13.8273 45.5338 11.8115C45.5338 9.79461 47.1471 8.15586 49.1295 8.15586L49.1306 8.15809ZM11.0667 22.0657C16.6294 22.0657 21.1557 17.4663 21.1557 11.8138C21.1557 6.1579 16.6294 1.56181 11.0667 1.56181C5.5051 1.56181 0.977783 6.1579 0.977783 11.8138C0.977783 17.4663 5.5051 22.0657 11.0667 22.0657ZM11.0667 8.15809C13.0503 8.15809 14.6636 9.79796 14.6636 11.8127C14.6636 13.8273 13.0503 15.465 11.0667 15.465C9.08429 15.465 7.47205 13.8273 7.47205 11.8115C7.47205 9.79461 9.0854 8.15586 11.0667 8.15586V8.15809ZM30.0932 7.92717L26.9957 1.69568H19.7434L26.5173 15.3278V21.7456H33.6701V15.3278L40.444 1.69568H33.1883L30.0943 7.92717H30.0932Z" fill="#EE2E24"/>
</g>
<defs>
<clipPath id="clip0_102_58">
<rect width="58.5667" height="22.3111" fill="white" transform="translate(0.977783 0.702835)"/>
</clipPath>
</defs>
</svg>
