<svg width="84" height="21" viewBox="0 0 84 21" fill="none" xmlns="http://www.w3.org/2000/svg">
<g clip-path="url(#clip0_102_21)">
<path d="M29.9414 7.54106V8.64743H29.9754C30.375 8.05508 31.0385 7.35748 32.509 7.35748C33.6531 7.35748 34.5308 7.93759 34.9069 8.81387H34.9409C35.2621 8.37084 35.6304 8.0355 36.0431 7.79807C36.5316 7.51658 37.0749 7.35504 37.7593 7.35504C39.3082 7.35504 40.6795 8.3586 40.6795 10.8895V15.6895H38.3182V11.2249C38.3182 9.94227 37.8533 9.20061 36.8868 9.20061C36.179 9.20061 35.6644 9.6461 35.4685 10.1944C35.4006 10.3829 35.3692 10.6399 35.3692 10.8553V15.692H33.0079V11.0437C33.0079 9.95451 32.5613 9.19817 31.6079 9.19817C30.8452 9.19817 30.3672 9.76114 30.1713 10.2433C30.0877 10.4489 30.0616 10.6864 30.0616 10.9091V15.6895H27.6977V7.54106H29.9414ZM52.8673 7.54106V9.07823H52.9326C53.3662 7.90332 54.3954 7.35748 55.2991 7.35748C55.5264 7.35748 55.6518 7.37462 55.8346 7.40889V9.54329C55.6178 9.51392 55.4167 9.48455 55.1346 9.48455C54.1107 9.48455 53.3976 10.0426 53.2173 10.9165C53.1782 11.0976 53.1651 11.2934 53.1651 11.5186V15.692H50.7411V7.54106H52.8673ZM59.1258 4.84123V7.40644H61.1736V9.4821H59.1258V12.5442C59.1258 13.5355 59.3948 14.0153 60.1941 14.0153C60.5703 14.0153 60.8471 13.9712 61.0874 13.9149L61.1188 15.6357C60.7975 15.7483 60.1131 15.8706 59.4183 15.8706C58.6008 15.8706 57.919 15.6038 57.5037 15.1902C57.0283 14.7178 56.8089 13.9443 56.8089 12.8428V4.84123H59.1258ZM26.0521 15.6895H23.7012V4.84123H26.0521V15.6895ZM19.7832 12.7792C19.7832 12.9285 19.7701 13.0851 19.7257 13.2198C19.5428 13.7852 18.9186 14.2625 18.1402 14.2625C17.4898 14.2625 16.9726 13.9174 16.9726 13.1855C16.9726 12.0669 18.2891 11.756 19.7858 11.7634V12.7792H19.7832ZM22.1314 10.8283C22.1314 8.98032 21.2903 7.35748 18.4458 7.35748C16.9857 7.35748 15.8259 7.74177 15.1938 8.08445L15.6561 9.56777C16.2334 9.22509 17.1554 8.9436 18.0279 8.9436C19.4723 8.94116 19.7074 9.70974 19.7074 10.2017V10.3192C16.5599 10.3143 14.5721 11.335 14.5721 13.4156C14.5721 14.6859 15.583 15.8755 17.3435 15.8755C18.4275 15.8755 19.3313 15.4717 19.8746 14.823H19.9268C19.9268 14.823 20.2873 16.2305 22.2672 15.692C22.1627 15.1045 22.1288 14.4803 22.1288 13.7289V10.8283H22.1314ZM2.76306 4.84123C3.00598 5.98921 3.69556 9.323 3.69556 9.323C3.9855 10.6937 4.25193 12.1305 4.45305 13.2663H4.48962C4.68553 12.0595 4.99375 10.9165 5.32287 9.50168L6.48523 4.84123H9.05809L10.1447 9.62162C10.4294 10.9507 10.6567 11.9763 10.8369 13.2124H10.8709C11.0668 11.9641 11.3227 10.8969 11.6022 9.53105L12.647 4.84123H15.1154L12.0567 15.6895C10.1081 16.0885 9.36109 15.3542 9.09466 14.1891C8.82823 13.0215 8.30582 10.8014 8.30582 10.8014C8.03678 9.5849 7.82782 8.7282 7.68154 7.47987H7.64498C7.43601 8.71597 7.2166 9.58246 6.89271 10.799L5.61019 15.692C3.61981 16.064 2.93023 15.5133 2.54887 14.0177C2.21976 12.7376 0.166687 4.84368 0.166687 4.84368H2.76306V4.84123ZM46.8231 12.7792C46.8231 12.9285 46.81 13.0851 46.7656 13.2198C46.5827 13.7852 45.9585 14.2625 45.1801 14.2625C44.5297 14.2625 44.0125 13.9174 44.0125 13.1855C44.0125 12.0669 45.329 11.756 46.8257 11.7634V12.7792H46.8231ZM49.1713 10.8283C49.1713 8.98032 48.3302 7.35748 45.4857 7.35748C44.0256 7.35748 42.8658 7.74177 42.2337 8.08445L42.696 9.56777C43.2733 9.22509 44.1953 8.9436 45.0678 8.9436C46.5096 8.94116 46.7473 9.70974 46.7473 10.2017V10.3192C43.6024 10.3143 41.6146 11.335 41.6146 13.4156C41.6146 14.6859 42.6281 15.8755 44.386 15.8755C45.4674 15.8755 46.3738 15.4717 46.9145 14.823H46.9693C46.9693 14.823 47.3298 16.2305 49.3097 15.692C49.2052 15.1045 49.1713 14.4803 49.1713 13.7289V10.8283Z" fill="#041E42"/>
<path d="M70.7031 11.9533C70.9349 12.3495 70.9192 12.7916 70.6719 12.9936L66.3967 15.9354C65.9515 16.1885 65.2849 15.8818 64.9074 15.2402C64.5273 14.5961 64.595 13.8779 65.0402 13.6249L69.7736 11.4626C70.0704 11.3501 70.4714 11.5571 70.7031 11.9533ZM76.3296 11.9533C76.564 11.5571 76.9623 11.3527 77.2591 11.46L81.9952 13.6223C82.4404 13.8754 82.5055 14.5936 82.128 15.2377C81.7478 15.8792 81.0787 16.1834 80.6361 15.9329L76.3609 12.991C76.1161 12.7916 76.0979 12.3469 76.3296 11.9533ZM73.5151 13.5482C73.9811 13.5482 74.3639 13.7834 74.4159 14.0926L74.8768 19.1994C74.8768 19.7055 74.2753 20.1195 73.5177 20.1195C72.7626 20.1195 72.1586 19.7055 72.1586 19.1994L72.6168 14.0926C72.6689 13.7834 73.0516 13.5482 73.5151 13.5482ZM76.3609 7.72579L80.6361 4.78135C81.0787 4.52832 81.7478 4.83247 82.128 5.47657C82.5055 6.12066 82.4404 6.83888 81.9952 7.09192L77.2591 9.25679C76.9623 9.36414 76.5614 9.15967 76.3296 8.7635C76.0979 8.36733 76.1161 7.92515 76.3609 7.72579ZM69.7736 9.25679L65.0402 7.09192C64.5976 6.83888 64.5299 6.12066 64.9074 5.47657C65.2849 4.83247 65.9541 4.52832 66.3967 4.78135L70.6719 7.72579C70.9192 7.9226 70.9349 8.36733 70.7031 8.7635C70.4714 9.15967 70.0704 9.36414 69.7736 9.25679ZM72.6168 6.62418L72.1586 1.51743C72.1586 1.01135 72.76 0.59729 73.5177 0.59729C74.2753 0.59729 74.8768 1.01135 74.8768 1.51743L74.4159 6.62418C74.3639 6.93089 73.9811 7.1686 73.5151 7.1686C73.0516 7.1686 72.6689 6.93089 72.6168 6.62418ZM83.284 15.915V15.7872H83.4011C83.4402 15.7872 83.4662 15.8128 83.4662 15.8511C83.4662 15.8869 83.4402 15.915 83.4011 15.915H83.284ZM83.1876 16.1476C83.1876 16.1604 83.1981 16.1731 83.2137 16.1731H83.2632C83.2762 16.1731 83.2892 16.1604 83.2892 16.1476V16.0019H83.3699L83.435 16.1553C83.4402 16.1655 83.448 16.1731 83.4584 16.1731H83.5183C83.5365 16.1731 83.5496 16.1553 83.5417 16.1374C83.5183 16.0914 83.4949 16.0428 83.4714 15.9942C83.5105 15.9815 83.5704 15.9431 83.5704 15.8511C83.5704 15.754 83.4897 15.6977 83.409 15.6977H83.2137C83.2007 15.6977 83.1876 15.7105 83.1876 15.7233V16.1476ZM82.9768 15.9354C82.9768 15.7284 83.1486 15.5597 83.3595 15.5597C83.5704 15.5597 83.7422 15.7259 83.7422 15.9354C83.7422 16.1425 83.573 16.3112 83.3595 16.3112C83.146 16.3112 82.9768 16.1425 82.9768 15.9354ZM82.8856 15.9354C82.8856 16.191 83.0965 16.4006 83.3595 16.4006C83.6199 16.4006 83.8334 16.191 83.8334 15.9354C83.8334 15.6799 83.6199 15.4703 83.3595 15.4703C83.0965 15.4703 82.8856 15.6799 82.8856 15.9354Z" fill="#FFC124"/>
</g>
<defs>
<clipPath id="clip0_102_21">
<rect width="83.6667" height="19.5222" fill="white" transform="translate(0.166687 0.59729)"/>
</clipPath>
</defs>
</svg>
